<svg width="91" height="138" viewBox="0 0 91 138" fill="none" xmlns="http://www.w3.org/2000/svg">
<path d="M37.8671 33.9016H30.0996V40.4466H37.8671V33.9016Z" fill="white"/>
<path d="M50.8894 42.7564H43.1218V50.4563H50.8894V42.7564Z" fill="white"/>
<path d="M37.8671 42.7564H30.0996V50.4563H37.8671V42.7564Z" fill="white"/>
<path d="M50.8894 33.9016H43.1218V40.4466H50.8894V33.9016Z" fill="white"/>
<path d="M49.1819 132.953L44.5821 136.16C43.0582 133.542 40.5856 130.975 38.0953 128.797C35.1548 126.225 32.0487 124.073 30.0683 122.868L29.769 122.686H29.4186H27.5268C27.568 120.033 27.7398 116.388 28.1391 112.859C28.3723 110.797 28.6809 108.796 29.0803 107.065C29.4849 105.311 29.9622 103.928 30.4916 103.043C31.2183 101.827 31.5527 100.652 31.5352 99.5374C31.5178 98.4208 31.1485 97.4555 30.6132 96.6602C29.5715 95.1125 27.8834 94.1697 26.6781 93.7496L26.4782 93.6799H26.2666H15.8583L26.6804 85.6322H33.0959H35.0123L34.2399 83.8784L30.5626 75.5281L30.234 74.7819H29.4186H23.5413L27.3895 66.9122L27.9598 65.7459L26.7728 65.2201L18.586 61.5942V58.8917V57.6417H17.336H9.12998V20.2416L44.0257 1.47429L86.5333 32.5908H72.4958H71.2458V33.8408V68.0939L60.0243 71.7675L59.1632 72.0494V72.9554V122.686H50.4319H49.1819V123.936V132.953Z" stroke="white" stroke-width="2.5"/>
</svg>
