<svg width="388" height="303" viewBox="0 0 388 303" fill="none" xmlns="http://www.w3.org/2000/svg">
<path d="M-9.15527e-05 266.272H387.653V266.475H-9.15527e-05V266.272Z" fill="#EBEBEB"/>
<path d="M60.0394 271.81H80.1741V272.013H60.0394V271.81Z" fill="#EBEBEB"/>
<path d="M142.92 273.274H149.657V273.477H142.92V273.274Z" fill="#EBEBEB"/>
<path d="M38.8428 279.358H53.7209V279.561H38.8428V279.358Z" fill="#EBEBEB"/>
<path d="M334.381 273.177H346.98V273.38H334.381V273.177Z" fill="#EBEBEB"/>
<path d="M301.679 273.177H330.234V273.38H301.679V273.177Z" fill="#EBEBEB"/>
<path d="M158.674 276.609H231.304V276.812H158.674V276.609Z" fill="#EBEBEB"/>
<path d="M203.905 229.999H353.609C354.782 229.997 355.906 229.507 356.734 228.636C357.563 227.765 358.028 226.585 358.028 225.355V4.60323C358.018 3.38006 357.548 2.21051 356.721 1.34862C355.893 0.486721 354.775 0.00209535 353.609 0H203.905C202.731 0 201.605 0.489266 200.775 1.36017C199.945 2.23106 199.478 3.41226 199.478 4.64389V225.355C199.478 226.587 199.945 227.768 200.775 228.639C201.605 229.51 202.731 229.999 203.905 229.999ZM353.609 0.162659C354.73 0.164813 355.805 0.633607 356.597 1.46614C357.389 2.29868 357.834 3.42693 357.834 4.60323V225.355C357.834 226.531 357.389 227.66 356.597 228.492C355.805 229.325 354.73 229.793 353.609 229.796H203.905C202.783 229.793 201.708 229.325 200.914 228.493C200.121 227.66 199.674 226.532 199.672 225.355V4.60323C199.674 3.42618 200.121 2.29795 200.914 1.46565C201.708 0.633343 202.783 0.164809 203.905 0.162659H353.609Z" fill="#EBEBEB"/>
<path d="M36.1989 229.999H185.91C187.084 229.997 188.209 229.507 189.038 228.636C189.868 227.766 190.335 226.586 190.337 225.355V4.60323C190.325 3.37932 189.854 2.20978 189.025 1.34811C188.196 0.486437 187.077 0.0020725 185.91 0H36.1989C35.0342 0.00423277 33.918 0.489804 33.0922 1.35147C32.2664 2.21313 31.7976 3.38146 31.7874 4.60323V225.355C31.7874 226.584 32.2517 227.763 33.0786 228.633C33.9055 229.503 35.0275 229.995 36.1989 229.999ZM185.91 0.162659C187.032 0.164809 188.108 0.633343 188.901 1.46565C189.695 2.29795 190.142 3.42618 190.144 4.60323V225.355C190.142 226.532 189.695 227.66 188.901 228.493C188.108 229.325 187.032 229.793 185.91 229.796H36.1989C35.0769 229.793 34.0013 229.325 33.2079 228.493C32.4145 227.66 31.9678 226.532 31.9658 225.355V4.60323C31.9678 3.42618 32.4145 2.29795 33.2079 1.46565C34.0013 0.633343 35.0769 0.164809 36.1989 0.162659H185.91Z" fill="#EBEBEB"/>
<path d="M222.613 205.868H258.882V266.272H222.613V205.868Z" fill="#F0F0F0"/>
<path d="M337.18 266.272H258.882V205.869H337.18V266.272Z" fill="#F5F5F5"/>
<path d="M337.56 254.943H299.035V232.219H337.56V254.943Z" fill="#FAFAFA"/>
<g style="mix-blend-mode:multiply" opacity="0.7">
<path d="M222.613 211.318H337.56V214.237H222.613V211.318Z" fill="#E6E6E6"/>
</g>
<path d="M220.613 204.104H258.882V212.546H220.613V204.104Z" fill="#F0F0F0"/>
<path d="M339.18 212.546H258.882V204.104H339.18V212.546Z" fill="#F5F5F5"/>
<path d="M330.567 203.949H305.083V161.503H330.567V203.949Z" fill="#F5F5F5"/>
<path d="M250.059 161.503H305.083V203.949H250.059V161.503Z" fill="#F0F0F0"/>
<path d="M249.796 180.022H276.869V195.987H249.796V180.022Z" fill="#F5F5F5"/>
<g style="mix-blend-mode:multiply" opacity="0.7">
<path d="M330.575 167.384H249.796V165.334H330.575V167.384Z" fill="#E6E6E6"/>
</g>
<path d="M331.978 166.196H305.083V160.267H331.978V166.196Z" fill="#F5F5F5"/>
<path d="M248.656 160.267H305.083V166.196H248.656V160.267Z" fill="#F0F0F0"/>
<path d="M350.988 137.593L216.605 137.593V28.3351L350.988 28.3351V137.593Z" fill="#E6E6E6"/>
<path d="M353.787 137.593L219.404 137.593V28.3351L353.787 28.3351V137.593Z" fill="#F5F5F5"/>
<path d="M360.269 143.92L216.605 143.92V137.593L360.269 137.593V143.92Z" fill="#E6E6E6"/>
<path d="M363.416 143.92L225.947 143.92V137.593L363.416 137.593V143.92Z" fill="#F5F5F5"/>
<path d="M224.42 131.916V34.0281L348.755 34.0281V131.916H224.42Z" fill="#FAFAFA"/>
<path d="M302.563 131.916L267.744 34.0281H303.253L338.072 131.916H302.563Z" fill="white"/>
<path d="M276.9 131.916L242.081 34.0281H261.642L296.453 131.916H276.9Z" fill="white"/>
<path d="M283.793 131.916V34.0281H289.39V131.916H283.793Z" fill="#F5F5F5"/>
<path d="M346.639 131.916V34.0281H348.755V131.916H346.639Z" fill="#E6E6E6"/>
<path d="M281.676 131.908V34.02H283.793V131.908H281.676Z" fill="#E6E6E6"/>
<path d="M165.861 266.272H66.366L66.366 10.4833H165.861L165.861 266.272Z" fill="#F0F0F0"/>
<path d="M165.861 266.272H71.0798L71.0798 10.4833H165.861L165.861 266.272Z" fill="#F5F5F5"/>
<path d="M76.0728 260.465L76.0728 16.2821L160.868 16.2821V260.465H76.0728Z" fill="#F0F0F0"/>
<path d="M142.594 126.288H149.262C151.313 126.288 152.975 128.032 152.975 130.184V130.59C152.975 132.742 151.313 134.486 149.262 134.486H142.594C140.543 134.486 138.88 132.742 138.88 130.59V130.184C138.88 128.032 140.543 126.288 142.594 126.288Z" fill="white"/>
<path d="M159.565 260.465L159.565 16.2821H160.86V260.465H159.565Z" fill="#F0F0F0"/>
<path d="M193.826 303C110.805 303 43.5023 298.878 43.5023 293.794C43.5023 288.709 110.805 284.587 193.826 284.587C276.848 284.587 344.15 288.709 344.15 293.794C344.15 298.878 276.848 303 193.826 303Z" fill="#F5F5F5"/>
<path d="M257.169 80.1662C256.944 81.0934 257.169 81.866 257.603 81.8985C258.037 81.931 258.642 81.2153 258.867 80.2719C259.092 79.3285 258.905 78.5803 258.433 78.5396C257.96 78.499 257.401 79.2472 257.169 80.1662Z" fill="white"/>
<path d="M256.518 86.9903C256.072 86.8803 255.88 86.0362 256.089 85.1048C256.297 84.1735 256.828 83.5077 257.274 83.6177C257.72 83.7277 257.912 84.5718 257.704 85.5032C257.495 86.4345 256.964 87.1003 256.518 86.9903Z" fill="white"/>
<path d="M242.112 244.256H318.488V291.451H242.112V244.256Z" fill="#407BFF"/>
<path opacity="0.7" d="M242.112 244.256H318.488V291.451H242.112V244.256Z" fill="white"/>
<path opacity="0.3" d="M298.849 244.256H318.488V291.451H298.849V244.256Z" fill="#407BFF"/>
<path opacity="0.7" d="M262.356 244.256H278.598V252.901H262.356V244.256Z" fill="white"/>
<path opacity="0.7" d="M305.517 244.256H311.82V252.901H305.517V244.256Z" fill="white"/>
<path opacity="0.3" d="M246.392 277.552H255.37V286.97H246.392V277.552Z" fill="#407BFF"/>
<path opacity="0.3" d="M258.014 277.552H266.992V286.97H258.014V277.552Z" fill="#407BFF"/>
<path d="M312.696 244.256H260.813V212.188H312.696V244.256Z" fill="#407BFF"/>
<path opacity="0.7" d="M312.696 244.256H260.813V212.188H312.696V244.256Z" fill="white"/>
<path opacity="0.3" d="M274.156 212.196H312.696V244.264H274.156V212.196Z" fill="#407BFF"/>
<path opacity="0.7" d="M298.942 218.068H287.91V212.196H298.942V218.068Z" fill="white"/>
<path opacity="0.7" d="M269.62 218.068H265.34V212.196H269.62V218.068Z" fill="white"/>
<path opacity="0.3" d="M309.796 241.214H303.695V234.814H309.796V241.214Z" fill="#407BFF"/>
<path opacity="0.3" d="M301.896 241.214H295.794V234.814H301.896V241.214Z" fill="#407BFF"/>
<path d="M222.699 287.913H170.699V255.78H222.699V287.913Z" fill="#407BFF"/>
<path opacity="0.7" d="M222.699 287.913H170.699V255.78H222.699V287.913Z" fill="white"/>
<path opacity="0.3" d="M184.065 255.78H222.691V287.913H184.065V255.78Z" fill="#407BFF"/>
<path opacity="0.7" d="M222.691 276.446H219.784V267.296H222.691V276.446Z" fill="white"/>
<path opacity="0.7" d="M187.748 276.454H180.39V267.305H187.748V276.454Z" fill="white"/>
<path opacity="0.3" d="M177.847 284.571H175.397V278.154H177.847V284.571Z" fill="#407BFF"/>
<path opacity="0.3" d="M174.676 284.571H172.226V278.154H174.676V284.571Z" fill="#407BFF"/>
<path d="M200.998 271.875L213.488 274.787L208.712 288.938L198.277 286.523L200.998 271.875Z" fill="#FFB573"/>
<path opacity="0.2" d="M200.998 271.884L213.496 274.795L210.821 282.717L199.47 280.082L200.998 271.884Z" fill="black"/>
<path d="M230.483 217.019C235.732 198.11 248.819 178.379 241.601 160.373L205.51 160.267C205.51 160.267 202.603 201.404 201.703 218.889C200.765 237.075 198.874 277.3 198.874 277.3L213.116 280.553C213.116 280.553 226.909 250.494 230.483 217.019Z" fill="#263238"/>
<path opacity="0.2" d="M243.043 179.16C241.283 189.212 236.468 199.492 232.847 209.667C228.49 190.457 229.025 167.872 243.043 179.16Z" fill="black"/>
<path d="M189.616 285.254C189.616 285.254 192.942 286.824 197.013 284.343C197.258 284.23 197.525 284.176 197.793 284.184C198.061 284.193 198.325 284.264 198.563 284.392C200.657 285.303 206.247 287.531 209.86 287.06C209.939 287.047 210.02 287.054 210.096 287.082C210.172 287.11 210.24 287.157 210.294 287.218C210.349 287.28 210.388 287.355 210.408 287.437C210.428 287.518 210.429 287.604 210.41 287.686C209.895 289.687 209.545 291.73 209.363 293.794L206.053 293.054L205.626 291.826L203.882 292.582C198.413 291.7 193.045 290.228 187.864 288.19C187.383 285.97 189.616 285.254 189.616 285.254Z" fill="#407BFF"/>
<path d="M253.889 274.372L265.798 274.494L266.317 289.223L256.37 289.142L253.889 274.372Z" fill="#FFB573"/>
<path opacity="0.2" d="M253.889 274.38L265.806 274.494L266.092 282.749L255.277 282.652L253.889 274.38Z" fill="black"/>
<path d="M266.837 217.019C267.798 198.11 269.108 169.848 263.069 161.138L225.986 160.267C225.986 160.267 236.298 201.696 240.143 219.101C244.144 237.237 253.951 280.098 253.951 280.098H266.821C266.821 280.098 271.682 238.596 266.837 217.019Z" fill="#263238"/>
<path d="M210.743 98.4572L210.177 99.8724L209.511 101.499C209.046 102.564 208.58 103.646 208.076 104.687C207.104 106.745 206.024 108.746 204.843 110.681C204.27 111.608 203.673 112.511 203.052 113.332C202.472 114.147 201.848 114.926 201.184 115.666C200.046 116.939 198.74 118.034 197.307 118.92L200.013 118.293C198.674 118.51 197.321 118.624 195.966 118.635C194.492 118.656 193.018 118.575 191.555 118.391C190.004 118.22 188.453 117.944 186.903 117.578C186.128 117.407 185.352 117.228 184.53 117.017L183.344 116.716L182.763 116.561C182.602 116.506 182.435 116.471 182.266 116.455L179.452 116.984C178.748 117.11 178.09 117.437 177.553 117.931C177.015 118.424 176.617 119.063 176.404 119.778C176.19 120.493 176.169 121.257 176.343 121.983C176.517 122.71 176.88 123.372 177.39 123.897L178.033 124.564L178.607 125.141C178.995 125.515 179.382 125.881 179.786 126.231C180.561 126.922 181.406 127.589 182.266 128.207C183.998 129.451 185.826 130.539 187.732 131.461C189.713 132.405 191.77 133.159 193.881 133.713C196.094 134.293 198.361 134.621 200.641 134.689C201.307 134.713 201.971 134.6 202.595 134.356L203.37 134.063C205.075 133.386 206.718 132.548 208.278 131.558C209.741 130.608 211.13 129.539 212.434 128.362C213.668 127.245 214.84 126.056 215.946 124.8C217.023 123.564 217.985 122.287 218.915 120.994C219.846 119.7 220.683 118.383 221.466 117.041C222.249 115.699 223.017 114.357 223.676 112.974C224.335 111.592 224.994 110.209 225.567 108.786C225.854 108.07 226.141 107.355 226.405 106.623L226.8 105.492L226.994 104.915L227.211 104.207C227.905 101.977 227.751 99.5512 226.781 97.437C225.811 95.3227 224.1 93.6832 222.005 92.8605C219.911 92.0378 217.594 92.0955 215.539 93.0217C213.484 93.9478 211.849 95.6708 210.976 97.831L210.743 98.4572Z" fill="#FFB573"/>
<path d="M183.236 125.117L184.964 120.18C184.91 114.65 178.15 115.959 178.15 115.959L173.102 114.78C172.479 114.692 171.846 114.838 171.316 115.193C170.785 115.547 170.391 116.086 170.203 116.716L168.97 120.156C168.677 120.848 168.652 121.632 168.901 122.343C169.15 123.053 169.653 123.634 170.303 123.962L174.754 125.589C175.597 125.93 176.509 126.044 177.405 125.922L183.236 125.117Z" fill="#FFB573"/>
<path d="M221.132 84.0538C213.697 87.307 207.177 101.45 207.177 101.45C207.518 104.866 215.007 114.406 221.613 116.854C221.613 116.854 226.761 114.609 230.002 107.233C234.142 97.6846 229.017 80.6055 221.132 84.0538Z" fill="#407BFF"/>
<path d="M225.319 83.0534C236.332 81.9555 247.427 82.1409 258.401 83.6065C259.904 83.8393 261.346 84.3915 262.638 85.2291C263.931 86.0668 265.047 87.1723 265.918 88.478C266.789 89.7837 267.396 91.2622 267.704 92.8229C268.011 94.3835 268.012 95.9936 267.705 97.5544C262.557 124.727 267.953 155.209 264.604 161.284C264.604 161.284 226.358 161.813 204.975 160.267C199.114 130.769 210.635 112.714 216.426 89.6736C217.427 85.7373 221.458 83.4764 225.319 83.0534Z" fill="#407BFF"/>
<path d="M255.13 105.492C256.262 107.599 257.518 109.827 258.719 111.999L262.293 118.505C262.875 119.578 263.449 120.652 263.991 121.709C264.534 122.767 265.085 123.816 265.542 124.832C265.999 125.849 266.465 126.857 266.829 127.711C267.007 128.134 267.162 128.525 267.263 128.801L267.333 128.988V129.061C267.379 129.167 267.333 128.956 267.403 128.85L267.441 128.037C267.388 129.852 267.17 131.657 266.79 133.429C266.387 135.462 265.891 137.601 265.309 139.74C264.728 141.879 264.131 144.083 263.503 146.295C262.875 148.507 262.208 150.76 261.642 152.948L261.588 153.143C261.33 154.149 261.404 155.217 261.798 156.173C262.193 157.129 262.884 157.916 263.759 158.408C264.635 158.899 265.643 159.065 266.62 158.878C267.597 158.692 268.485 158.164 269.139 157.38C270.696 155.481 272.156 153.497 273.512 151.435C274.179 150.41 274.853 149.386 275.489 148.32C276.125 147.255 276.737 146.189 277.342 145.067C278.563 142.811 279.666 140.487 280.645 138.105C281.766 135.417 282.57 132.596 283.041 129.704C283.052 129.541 283.052 129.378 283.041 129.216V128.866C283.051 128.144 283.017 127.421 282.94 126.703C282.94 126.41 282.87 126.077 282.831 125.808L282.699 125.044C282.521 124.027 282.312 123.181 282.102 122.36C281.676 120.733 281.172 119.318 280.676 117.927C280.18 116.537 279.652 115.227 279.125 113.934C278.598 112.641 278.009 111.389 277.443 110.144C276.311 107.647 275.117 105.264 273.822 102.882C272.527 100.499 271.271 98.2377 269.783 95.8954C268.461 94.1555 266.579 92.9825 264.49 92.5972C262.402 92.212 260.251 92.6412 258.443 93.804C256.635 94.9667 255.294 96.7827 254.674 98.9101C254.054 101.037 254.197 103.329 255.075 105.354L255.13 105.492Z" fill="#FFB573"/>
<path d="M262.379 85.1761C269.736 88.6408 275.877 102.654 275.877 102.654C275.156 107.534 264.743 117.976 259.301 119.944C259.301 119.944 254.757 115.748 252.641 105.972C250.214 94.7405 258.401 86.0708 262.379 85.1761Z" fill="#407BFF"/>
<path d="M230.529 85.0623C231.251 83.593 232.426 82.4235 233.863 81.7441C234.404 80.2831 234.445 78.6707 233.979 77.1815L250.261 71.7324C248.943 77.4255 247.935 81.8498 249.919 84.5987C246.717 86.6482 240.841 90.2918 234.413 90.1454C227.986 89.999 229.49 87.429 230.529 85.0623Z" fill="#FFB573"/>
<path opacity="0.2" d="M234.142 77.7102L246.376 76.9538C242.546 81.2399 236.747 82.8583 234.103 81.1097C234.389 79.9981 234.403 78.8287 234.142 77.7102Z" fill="black"/>
<path d="M234.072 90.1291L236.716 87.8356L240.275 89.7062C240.275 89.7062 238.019 91.9021 234.072 90.1291Z" fill="#407BFF"/>
<path opacity="0.3" d="M234.072 90.1291L236.716 87.8356L240.275 89.7062C240.275 89.7062 238.019 91.9021 234.072 90.1291Z" fill="black"/>
<path d="M230.669 57.4429C230.459 60.8913 232.576 63.8435 235.398 64.0306C238.22 64.2176 240.67 61.5907 240.88 58.1179C241.089 54.6452 238.972 51.7173 236.15 51.5303C233.328 51.3432 230.878 53.9945 230.669 57.4429Z" fill="#263238"/>
<path d="M228.366 69.7643C228.157 73.2126 230.273 76.1649 233.096 76.3519C235.918 76.539 238.368 73.9121 238.577 70.4393C238.786 66.9665 236.662 64.0387 233.848 63.8516C231.033 63.6646 228.575 66.3078 228.366 69.7643Z" fill="#263238"/>
<path d="M252.974 62.5016C251.594 70.0002 250.486 75.067 245.617 77.8403C235.933 83.3625 231.072 78.7593 230.11 71.0493C229.265 64.1038 231.661 53.0105 239.616 50.7658C247.454 48.5536 254.362 55.0031 252.974 62.5016Z" fill="#FFB573"/>
<path d="M234.08 68.3166C225.738 66.503 226.901 75.0344 228.909 78.0761C230.677 80.7844 234.507 83.1267 241.159 80.2232C248.074 77.214 246.229 72.0252 248.439 68.8941C249.214 67.7555 247.477 63.0872 246.345 65.5352C243.903 70.8378 237.538 66.9096 234.08 68.3166Z" fill="#263238"/>
<path d="M249.842 69.0242C245.965 71.4641 245.392 67.3407 246.345 65.5758C244.795 63.6809 243.469 57.2396 247.772 56.6296C245.702 57.2071 239.127 56.5808 240.205 52.4412C237.708 54.7997 230.196 56.2067 230.669 52.0183C231.351 45.8942 240.275 40.6322 246.345 45.8942C253.664 41.7545 262.2 50.3266 257.851 54.2548C263.433 55.491 262.2 64.1932 258.998 65.2993C261.472 69.8212 251.633 75.7338 249.842 69.0242Z" fill="#263238"/>
<path opacity="0.2" d="M241.523 62.5585C242.423 62.2322 243.409 62.2906 244.268 62.7212C243.352 62.8563 242.419 62.801 241.523 62.5585Z" fill="black"/>
<path opacity="0.2" d="M241.531 63.2498C241.959 63.1944 242.393 63.2385 242.803 63.3791C243.213 63.5196 243.589 63.7532 243.903 64.0631C243.066 63.9728 242.257 63.6955 241.531 63.2498Z" fill="black"/>
<path opacity="0.2" d="M234.824 55.3037C237.118 55.1058 239.425 55.1575 241.709 55.4578C237.871 55.5227 234.824 55.3037 234.824 55.3037Z" fill="black"/>
<path opacity="0.2" d="M233.824 56.0522C233.824 56.0522 239.089 56.2149 241.577 57.1989C238.973 56.9876 236.383 56.6046 233.824 56.0522Z" fill="black"/>
<path d="M255.075 70.9761C254.473 71.7746 253.725 72.4401 252.876 72.9342C252.027 73.4283 251.094 73.7413 250.129 73.8551C247.539 74.1398 246.958 71.9358 247.803 69.5121C248.578 67.3325 251.168 64.4941 253.602 65.2912C256.037 66.0882 256.533 68.9835 255.075 70.9761Z" fill="#FFB573"/>
<path d="M239.267 62.6643C239.205 63.323 238.817 63.8191 238.399 63.7703C237.98 63.7215 237.709 63.1441 237.771 62.4853C237.833 61.8266 238.228 61.3223 238.647 61.3711C239.065 61.4199 239.337 61.9974 239.267 62.6643Z" fill="#263238"/>
<path d="M232.716 62.1112C232.654 62.77 232.266 63.2742 231.847 63.2173C231.429 63.1604 231.157 62.5911 231.219 61.9323C231.281 61.2735 231.677 60.7693 232.095 60.8181C232.514 60.8669 232.785 61.4443 232.716 62.1112Z" fill="#263238"/>
<path d="M234.824 62.7944L234.049 68.341C233.42 68.3796 232.789 68.3109 232.181 68.1377C232.06 68.0965 231.952 68.0214 231.869 67.9206C231.785 67.8198 231.73 67.697 231.708 67.5655C231.687 67.4341 231.7 67.299 231.746 67.1748C231.793 67.0506 231.87 66.942 231.971 66.8608C233.561 65.6327 234.824 62.7944 234.824 62.7944Z" fill="#ED893E"/>
<path d="M242.67 60.9238C242.733 60.92 242.795 60.9005 242.849 60.8669C242.89 60.8382 242.925 60.8013 242.952 60.7584C242.979 60.7154 242.998 60.6672 243.008 60.6165C243.017 60.5658 243.017 60.5137 243.007 60.4631C242.997 60.4126 242.977 60.3646 242.95 60.322C242.634 59.7932 242.203 59.3508 241.692 59.0312C241.181 58.7117 240.605 58.5241 240.011 58.4839C239.908 58.4839 239.81 58.5268 239.737 58.603C239.664 58.6793 239.624 58.7827 239.624 58.8906C239.624 58.9984 239.664 59.1019 239.737 59.1781C239.81 59.2544 239.908 59.2972 240.011 59.2972C240.484 59.3339 240.941 59.488 241.345 59.7468C241.75 60.0056 242.09 60.3616 242.337 60.7855C242.378 60.8356 242.429 60.8744 242.487 60.8985C242.545 60.9226 242.608 60.9313 242.67 60.9238Z" fill="#263238"/>
<path d="M230.32 60.1837C230.38 60.1882 230.441 60.1773 230.496 60.1518C230.551 60.1263 230.6 60.087 230.638 60.0373C230.922 59.6469 231.289 59.3322 231.711 59.1188C232.133 58.9054 232.596 58.7994 233.064 58.8092C233.113 58.8148 233.162 58.8102 233.209 58.7955C233.255 58.7808 233.299 58.7565 233.337 58.7239C233.374 58.6913 233.405 58.6511 233.428 58.6056C233.45 58.5602 233.464 58.5105 233.468 58.4595C233.474 58.3567 233.444 58.2551 233.382 58.1751C233.32 58.095 233.231 58.0427 233.134 58.0285C232.539 58.0008 231.947 58.1238 231.407 58.3871C230.867 58.6504 230.396 59.0463 230.033 59.5412C229.972 59.6236 229.945 59.7276 229.957 59.831C229.968 59.9343 230.018 60.0288 230.095 60.0942C230.16 60.1465 230.238 60.1776 230.32 60.1837Z" fill="#263238"/>
<path d="M249.136 80.9389C249.136 80.9389 243.562 87.4453 236.732 87.8194C240.717 89.7957 243.593 94.0411 243.593 94.0411C243.593 94.0411 250.858 92.1786 252.47 82.655C251.393 81.3293 249.136 80.9389 249.136 80.9389Z" fill="#EBEBEB"/>
<path d="M234.072 90.1291L231.072 87.3151L227.257 88.5025C227.257 88.5025 230.142 91.9021 234.072 90.1291Z" fill="#407BFF"/>
<path opacity="0.3" d="M234.072 90.1291L231.072 87.3151L227.257 88.5025C227.257 88.5025 230.142 91.9021 234.072 90.1291Z" fill="black"/>
<path d="M233.863 81.7441C233.863 81.7441 231.204 84.9973 231.072 87.3152C227.909 88.6002 224.986 92.813 224.986 92.813C224.986 92.813 225.761 86.144 230.77 82.3541C231.719 81.8304 232.797 81.6179 233.863 81.7441Z" fill="#EBEBEB"/>
<path d="M268 293.785H265.41L264.712 292.679L263.356 293.794H247.733C247.636 292.504 247.866 291.21 248.4 290.044C248.4 290.044 253.052 289.597 254.866 287.157C254.93 287.062 255.019 286.988 255.122 286.945C255.226 286.901 255.339 286.89 255.448 286.913C256.998 287.255 263.201 288.483 266.581 287.198C266.665 287.161 266.756 287.146 266.847 287.154C266.938 287.162 267.026 287.194 267.102 287.246C267.179 287.299 267.242 287.37 267.286 287.453C267.331 287.537 267.355 287.631 267.356 287.726C267.425 289.76 267.64 291.786 268 293.785Z" fill="#407BFF"/>
<path d="M184.461 118.131C182.639 114.064 178.77 113.959 175.793 112.909C175.289 112.73 174.389 113.885 174.963 114.699C175.274 115.229 175.684 115.689 176.167 116.051C176.65 116.413 177.198 116.669 177.777 116.805C177.816 118.212 179.258 122.01 183.057 121.921C183.95 120.879 184.449 119.531 184.461 118.131Z" fill="#FFB573"/>
<path d="M232.832 70.846C232.832 70.846 234.995 70.3255 241.097 70.2442C240.492 71.6023 238.926 72.619 235.801 72.684C233.289 72.806 232.832 70.846 232.832 70.846Z" fill="white"/>
<path d="M263.286 151.199L267.891 153.273C271.682 157.112 266.131 161.365 266.131 161.365L264.247 164.545C263.88 165.082 263.344 165.465 262.734 165.625C262.123 165.786 261.478 165.715 260.913 165.424L257.688 164C257.007 163.749 256.445 163.228 256.124 162.549C255.803 161.87 255.746 161.087 255.967 160.365L257.153 157.356C257.499 156.478 258.048 155.703 258.75 155.103L263.286 151.199Z" fill="#FFB573"/>
<path d="M112.729 76.9131C117.451 68.9347 115.582 64.2339 110.403 63.2905L89.6947 71.464C82.3293 80.7925 96.6724 80.2476 88.7178 87.6811C80.7631 95.1146 103.728 104.565 115.016 94.8543C126.305 85.1436 108.015 84.8915 112.729 76.9131Z" fill="#263238"/>
<path d="M81.0658 287.271L74.561 285.758C75.4681 279.252 75.8015 271.688 76.5613 267.671L84.074 268.769L81.0658 287.271Z" fill="#FFC3BD"/>
<path d="M128.848 288.377L122.723 288.32C122.157 281.814 119.97 274.055 119.761 269.956L127.328 269.761L128.848 288.377Z" fill="#FFC3BD"/>
<path d="M85.4925 293.786C80.3134 292.639 80.7011 292.639 77.817 291.882C75.3437 291.24 74.677 291.427 72.6845 290.939C71.0175 290.524 71.4207 288.865 72.3278 287.043C72.7232 286.23 73.2582 285.327 73.8242 284.124C73.8994 283.955 74.0274 283.819 74.1868 283.738C74.3463 283.656 74.5275 283.634 74.7003 283.676L81.5229 285.197C81.658 285.227 81.7831 285.294 81.8853 285.391C81.9875 285.488 82.0632 285.612 82.1044 285.75C82.5414 286.944 83.2299 288.02 84.1187 288.896C85.0074 289.772 86.0734 290.426 87.2369 290.809C89.935 291.825 87.5548 294.249 85.4925 293.786Z" fill="#263238"/>
<path d="M136.849 293.785C133.065 293.785 130.561 293.428 127.623 293.322C125.103 293.232 124.762 293.785 122.195 293.785C120.513 293.785 120.04 291.801 120.467 290.305C120.881 289.169 121.233 288.009 121.521 286.832C121.554 286.663 121.643 286.511 121.772 286.404C121.901 286.297 122.062 286.241 122.226 286.246H129.266C129.399 286.251 129.528 286.286 129.646 286.349C129.764 286.412 129.868 286.502 129.949 286.612C130.813 287.841 131.934 288.846 133.225 289.551C134.516 290.255 135.944 290.641 137.399 290.679C140.268 290.915 138.927 293.785 136.849 293.785Z" fill="#263238"/>
<path d="M123.909 144.994C123.909 144.994 126.7 184.268 125.591 209.244C126.778 232.658 128.483 279.919 128.483 279.919C128.359 281.114 122.351 280.643 121.304 279.919C121.304 279.919 108.356 247.225 111.636 209.244C97.409 169.628 98.9984 144.994 98.9984 144.994H123.909Z" fill="#407BFF"/>
<path opacity="0.2" d="M109.799 160.755C107.581 161.138 101.635 165.57 100.859 168.368C102.42 177.86 104.606 187.227 107.403 196.402C110.985 185.959 111.574 170.889 109.799 160.755Z" fill="black"/>
<path d="M116.435 144.994C116.435 144.994 106.139 189.326 101.2 211.09C96.0213 233.952 85.3996 264.035 83.221 279.073C81.8642 279.545 77.5845 278.642 75.3594 277.324C75.3594 277.324 73.4831 234.114 86.0043 212.107C83.1745 157.949 95.308 144.994 95.308 144.994H116.435Z" fill="#407BFF"/>
<path d="M84.4459 276.113C84.2602 277.141 84.1436 278.182 84.097 279.228C84.0962 279.316 84.0781 279.402 84.044 279.483C84.0099 279.563 83.9604 279.635 83.8986 279.695C83.8369 279.754 83.7641 279.8 83.6849 279.829C83.6056 279.857 83.5216 279.869 83.438 279.862C80.4608 279.707 76.4602 278.073 75.1655 277.528C75.0475 277.479 74.9473 277.391 74.8791 277.279C74.8109 277.167 74.7782 277.035 74.7856 276.902L74.9329 273.949C74.9382 273.853 74.9637 273.759 75.0075 273.674C75.0513 273.589 75.1123 273.516 75.1863 273.458C75.2602 273.401 75.3453 273.361 75.4355 273.342C75.5257 273.323 75.6188 273.325 75.7082 273.348L83.9884 275.373C84.1403 275.411 84.2723 275.51 84.3574 275.647C84.4424 275.785 84.4741 275.951 84.4459 276.113Z" fill="#263238"/>
<path opacity="0.1" d="M84.4459 276.113C84.2602 277.141 84.1436 278.182 84.097 279.228C84.0962 279.316 84.0781 279.402 84.044 279.483C84.0099 279.563 83.9604 279.635 83.8986 279.695C83.8369 279.754 83.7641 279.8 83.6849 279.829C83.6056 279.857 83.5216 279.869 83.438 279.862C80.4608 279.707 76.4602 278.073 75.1655 277.528C75.0475 277.479 74.9473 277.391 74.8791 277.279C74.8109 277.167 74.7782 277.035 74.7856 276.902L74.9329 273.949C74.9382 273.853 74.9637 273.759 75.0075 273.674C75.0513 273.589 75.1123 273.516 75.1863 273.458C75.2602 273.401 75.3453 273.361 75.4355 273.342C75.5257 273.323 75.6188 273.325 75.7082 273.348L83.9884 275.373C84.1403 275.411 84.2723 275.51 84.3574 275.647C84.4424 275.785 84.4741 275.951 84.4459 276.113Z" fill="white"/>
<path d="M129.158 276.584C129.212 277.398 129.328 278.853 129.445 279.919C129.462 280.088 129.416 280.257 129.316 280.391C129.216 280.525 129.07 280.612 128.91 280.635C126.26 280.879 123.594 280.862 120.947 280.586C120.819 280.573 120.698 280.518 120.6 280.429C120.503 280.34 120.435 280.221 120.404 280.09L119.746 277.178C119.722 277.084 119.719 276.986 119.737 276.891C119.755 276.796 119.792 276.706 119.847 276.628C119.902 276.55 119.973 276.486 120.055 276.44C120.137 276.395 120.227 276.369 120.319 276.365L128.475 276.023C128.636 276.005 128.798 276.053 128.926 276.158C129.053 276.263 129.136 276.416 129.158 276.584Z" fill="#263238"/>
<path opacity="0.1" d="M129.158 276.584C129.212 277.398 129.328 278.853 129.445 279.919C129.462 280.088 129.416 280.257 129.316 280.391C129.216 280.525 129.07 280.612 128.91 280.635C126.26 280.879 123.594 280.862 120.947 280.586C120.819 280.573 120.698 280.518 120.6 280.429C120.503 280.34 120.435 280.221 120.404 280.09L119.746 277.178C119.722 277.084 119.719 276.986 119.737 276.891C119.755 276.796 119.792 276.706 119.847 276.628C119.902 276.55 119.973 276.486 120.055 276.44C120.137 276.395 120.227 276.369 120.319 276.365L128.475 276.023C128.636 276.005 128.798 276.053 128.926 276.158C129.053 276.263 129.136 276.416 129.158 276.584Z" fill="white"/>
<path d="M115.52 109.998L116.032 110.892L116.513 111.706C116.831 112.226 117.164 112.714 117.49 113.202C118.149 114.186 118.854 115.122 119.567 116.041C121.008 117.878 122.562 119.614 124.219 121.238C124.994 122.051 125.902 122.864 126.754 123.62C127.607 124.377 128.522 125.125 129.46 125.808C131.314 127.224 133.263 128.499 135.291 129.623L135.57 129.777C136.279 130.185 137.092 130.35 137.896 130.249C139.12 130.094 140.319 129.769 141.462 129.281C142.529 128.818 143.543 128.232 144.486 127.532C145.363 126.888 146.178 126.155 146.92 125.345C147.63 124.583 148.286 123.768 148.882 122.905C150.002 121.298 150.963 119.576 151.75 117.765C152.138 116.886 152.479 115.992 152.789 115.097C153.094 114.171 153.353 113.229 153.564 112.275C153.704 111.677 153.64 111.047 153.385 110.493C153.129 109.94 152.697 109.497 152.163 109.241C151.629 108.986 151.027 108.934 150.461 109.094C149.894 109.255 149.399 109.617 149.06 110.12L148.913 110.339C148.525 110.933 148.044 111.657 147.595 112.308C147.145 112.958 146.657 113.609 146.176 114.235C145.249 115.447 144.233 116.581 143.137 117.626C142.196 118.56 141.13 119.343 139.973 119.953C139.1 120.422 138.133 120.667 137.151 120.668L139.787 121.294C138.234 120.206 136.738 119.031 135.306 117.773C133.86 116.499 132.483 115.141 131.181 113.706C129.871 112.275 128.6 110.787 127.421 109.233C126.824 108.42 126.266 107.672 125.7 106.883L124.925 105.696L124.545 105.118L124.227 104.622L124.025 104.305C123.306 103.118 122.166 102.281 120.858 101.976C119.549 101.67 118.179 101.923 117.048 102.678C115.917 103.433 115.118 104.628 114.827 106.001C114.536 107.374 114.777 108.811 115.497 109.998H115.52Z" fill="#FFC3BD"/>
<path d="M116.761 99.36C122.126 99.2055 127.328 104.451 130.615 110.38C129.84 114.17 121.723 120.432 121.723 120.432C121.723 120.432 109.698 108.266 116.761 99.36Z" fill="#263238"/>
<path d="M125.529 109.697C125.687 114.271 125.623 118.85 125.335 123.417C125.118 129.37 124.731 135.226 123.909 144.994H95.3234C95.9049 136.552 94.9668 126.922 89.8342 107.924C89.5311 106.93 89.4437 105.878 89.5785 104.844C89.7133 103.811 90.0668 102.822 90.6132 101.95C91.1595 101.078 91.8849 100.346 92.7361 99.8059C93.5874 99.2663 94.5429 98.9333 95.5327 98.8313C96.6647 98.7093 97.8587 98.6117 99.0992 98.5467C103.42 98.2251 107.757 98.2251 112.078 98.5467C113.489 98.6849 114.946 98.872 116.35 99.0753C118.816 99.4566 121.079 100.724 122.753 102.661C124.427 104.598 125.409 107.085 125.529 109.697Z" fill="#263238"/>
<path d="M100.014 83.2161C101.146 87.5998 102.534 95.6269 99.8202 98.5467C99.8202 98.5467 103.774 97.9286 112.171 103.378C114.605 99.7178 112.799 98.5467 112.799 98.5467C108.062 97.3837 107.922 93.7564 108.488 90.3568L100.014 83.2161Z" fill="#FFC3BD"/>
<path d="M110.395 102.28C107.635 102.686 106.767 107.07 106.767 107.07C106.767 107.07 100.123 102.141 98.0215 98.6687C98.8564 98.1703 99.6663 97.6274 100.448 97.0421C100.448 97.0421 108.783 100.604 110.395 102.28Z" fill="white"/>
<path d="M113.032 101.808C113.032 101.808 115.419 102.483 116.28 106.013C116.916 99.6202 114.07 98.5386 114.07 98.5386C113.311 98.0934 112.423 97.9573 111.574 98.1563C112.183 98.4934 112.661 99.0419 112.927 99.708C113.193 100.374 113.23 101.116 113.032 101.808Z" fill="white"/>
<path opacity="0.2" d="M103.464 86.1277L108.48 90.3487C108.333 91.153 108.255 91.9696 108.248 92.7886C106.449 92.5121 103.86 90.4626 103.534 88.5107C103.373 87.7273 103.35 86.9199 103.464 86.1277Z" fill="black"/>
<path d="M96.44 74.4326C97.7115 81.5001 98.1069 84.5174 101.952 87.9088C107.736 93.0082 115.691 90.308 116.451 83.1023C117.133 76.5959 114.947 66.137 108 63.7947C106.523 63.2419 104.932 63.1131 103.392 63.4216C101.852 63.7301 100.418 64.4648 99.2393 65.5495C98.0605 66.6343 97.1795 68.0297 96.6873 69.5915C96.1952 71.1533 96.1098 72.8246 96.44 74.4326Z" fill="#FFC3BD"/>
<path d="M96.2694 78.1412C100.324 79.8247 102.976 73.05 101.774 68.3817C108.814 71.8219 120.381 66.8283 118.621 61.9241C116.016 63.9818 114.458 63.3067 114.458 63.3067C114.458 63.3067 92.6565 48.6675 94.3466 61.607C82.1821 66.69 89.0203 75.6932 96.2694 78.1412Z" fill="#263238"/>
<path d="M111.76 57.508C112.907 58.3213 112.132 61.485 106.17 58.6303L103.945 58.0447C108.837 62.5097 113.295 65.4538 115.652 63.6158C118.009 61.7778 116.078 56.6865 111.76 57.508Z" fill="#263238"/>
<path d="M107.124 75.6363C107.209 76.2381 107.566 76.7017 107.899 76.6691C108.232 76.6366 108.496 76.1324 108.418 75.5387C108.341 74.945 107.969 74.4733 107.604 74.5058C107.24 74.5383 107.038 75.01 107.124 75.6363Z" fill="#263238"/>
<path d="M113.97 75.1808C114.055 75.7826 114.419 76.2381 114.784 76.2137C115.148 76.1893 115.373 75.6769 115.295 75.0751C115.218 74.4732 114.853 74.0178 114.481 74.0503C114.109 74.0829 113.931 74.579 113.97 75.1808Z" fill="#263238"/>
<path d="M114.365 74.091L115.652 73.5705C115.652 73.5705 115.117 74.7497 114.365 74.091Z" fill="#263238"/>
<path d="M112.225 76.0185C112.911 77.3545 113.758 78.5927 114.745 79.7027C114.484 79.9441 114.173 80.1194 113.837 80.2153C113.501 80.3112 113.148 80.325 112.807 80.2558L112.225 76.0185Z" fill="#ED847E"/>
<path d="M109.892 82.9559C110.209 82.9846 110.528 82.9846 110.845 82.9559C110.867 82.9552 110.888 82.9495 110.907 82.9393C110.927 82.9291 110.943 82.9145 110.957 82.8967C110.97 82.8788 110.979 82.8581 110.984 82.836C110.989 82.8139 110.989 82.791 110.985 82.7688C110.979 82.7221 110.957 82.6794 110.922 82.6493C110.888 82.6191 110.843 82.6037 110.799 82.6062C110.081 82.6632 109.361 82.5511 108.69 82.2781C108.019 82.0051 107.415 81.5781 106.922 81.0284C106.891 80.9975 106.849 80.9804 106.806 80.9804C106.763 80.9804 106.721 80.9975 106.689 81.0284C106.66 81.0615 106.644 81.1051 106.644 81.1504C106.644 81.1957 106.66 81.2393 106.689 81.2724C107.522 82.2296 108.662 82.8294 109.892 82.9559Z" fill="#263238"/>
<path d="M95.0676 79.7027C95.3566 80.3213 95.7671 80.8686 96.2722 81.3088C96.7773 81.7489 97.3656 82.0719 97.9982 82.2565C99.5488 82.655 100.208 80.7519 99.6418 78.8813C99.1301 77.1978 97.6958 74.9612 96.1762 75.4085C94.6566 75.8559 94.238 78.0761 95.0676 79.7027Z" fill="#FFC3BD"/>
<path d="M105.139 71.4559C105.188 71.4593 105.237 71.4524 105.284 71.4356C105.33 71.4189 105.373 71.3926 105.41 71.3583C105.746 71.0273 106.148 70.7773 106.585 70.6256C107.023 70.4739 107.487 70.4242 107.945 70.48C107.991 70.4921 108.039 70.4945 108.086 70.4871C108.132 70.4798 108.177 70.4627 108.218 70.437C108.258 70.4112 108.293 70.3774 108.321 70.3373C108.349 70.2972 108.369 70.2517 108.38 70.2034C108.384 70.1017 108.351 70.002 108.288 69.9248C108.224 69.8477 108.135 69.799 108.038 69.7887C107.459 69.709 106.869 69.7638 106.312 69.9493C105.755 70.1348 105.243 70.4465 104.813 70.8622C104.782 70.8967 104.758 70.938 104.744 70.9832C104.729 71.0283 104.725 71.0763 104.73 71.1236C104.735 71.1709 104.75 71.2164 104.774 71.257C104.798 71.2976 104.83 71.3322 104.867 71.3583C104.944 71.4227 105.04 71.4572 105.139 71.4559Z" fill="#263238"/>
<path d="M97.8742 160.764C91.6175 157.063 85.6477 151.15 79.8407 143.977C86.4773 134.161 93.1992 125.45 100.161 119.944C106.24 126.622 112.264 132.388 118.203 136.723C111.489 142.627 104.666 151.378 97.8742 160.764Z" fill="white"/>
<path d="M115.667 71.4559C115.708 71.4645 115.75 71.4639 115.79 71.4541C115.83 71.4443 115.867 71.4255 115.9 71.399C115.968 71.3389 116.011 71.2535 116.019 71.1608C116.028 71.0682 116.002 70.9757 115.947 70.9029C115.629 70.4424 115.215 70.0644 114.737 69.7979C114.258 69.5314 113.728 69.3836 113.187 69.3658C113.143 69.3676 113.1 69.379 113.061 69.3993C113.022 69.4196 112.987 69.4484 112.959 69.4837C112.932 69.519 112.911 69.5601 112.9 69.6042C112.888 69.6484 112.885 69.6946 112.892 69.7399C112.903 69.8326 112.947 69.9177 113.014 69.9792C113.081 70.0406 113.167 70.0741 113.256 70.0734C113.686 70.0924 114.106 70.2144 114.483 70.4301C114.861 70.6459 115.187 70.9495 115.435 71.3177C115.461 71.3575 115.496 71.3905 115.536 71.4145C115.577 71.4384 115.621 71.4526 115.667 71.4559Z" fill="#263238"/>
<path d="M94.3359 160.856L78.0492 145.543C77.5007 145.027 77.4546 144.143 77.9462 143.567L97.3876 120.814C97.8792 120.239 98.7223 120.19 99.2707 120.706L115.557 136.019C116.106 136.535 116.152 137.419 115.66 137.994L96.219 160.748C95.7275 161.323 94.8844 161.371 94.3359 160.856Z" fill="#407BFF"/>
<path opacity="0.4" d="M94.3359 160.856L78.0492 145.543C77.5007 145.027 77.4546 144.143 77.9462 143.567L97.3876 120.814C97.8792 120.239 98.7223 120.19 99.2707 120.706L115.557 136.019C116.106 136.535 116.152 137.419 115.66 137.994L96.219 160.748C95.7275 161.323 94.8844 161.371 94.3359 160.856Z" fill="white"/>
<path d="M107.48 74.5139L108.767 74.0015C108.767 74.0015 108.232 75.1727 107.48 74.5139Z" fill="#263238"/>
<path d="M106.488 150.329L105.883 148.182C105.773 147.787 105.575 147.426 105.305 147.128C105.035 146.829 104.702 146.603 104.333 146.466L100.789 145.189C100.091 144.939 99.3451 144.866 98.6143 144.978C97.8836 145.09 97.1888 145.382 96.5872 145.831L95.8119 146.401C96.5872 150.028 99.9753 153.354 99.9753 153.354L100.836 154.412C101.008 154.634 101.22 154.819 101.46 154.955C101.701 155.091 101.964 155.176 102.236 155.204C102.508 155.233 102.782 155.205 103.043 155.122C103.305 155.039 103.548 154.903 103.759 154.721L105.782 152.948C106.129 152.63 106.38 152.213 106.505 151.748C106.63 151.283 106.624 150.79 106.488 150.329Z" fill="#FFC3BD"/>
<path d="M154.797 104.589L152.696 104.931C152.305 104.995 151.934 105.156 151.615 105.401C151.295 105.645 151.036 105.967 150.859 106.338L149.184 109.86C148.852 110.551 148.684 111.317 148.694 112.091C148.703 112.865 148.89 113.626 149.238 114.308L149.672 115.17C153.2 114.845 156.79 111.763 156.79 111.763L157.906 111.006C158.139 110.856 158.341 110.66 158.502 110.428C158.662 110.196 158.777 109.933 158.841 109.654C158.904 109.375 158.914 109.086 158.871 108.803C158.828 108.52 158.732 108.249 158.588 108.005L157.185 105.671C156.929 105.269 156.567 104.953 156.143 104.761C155.72 104.569 155.252 104.509 154.797 104.589Z" fill="#FFC3BD"/>
<path d="M160.62 117.464C160.65 117.463 160.679 117.456 160.706 117.442C160.733 117.427 160.756 117.407 160.775 117.383C161.11 116.842 161.245 116.191 161.155 115.553C161.084 115.233 160.954 114.931 160.77 114.666C160.586 114.4 160.353 114.176 160.085 114.007C160.065 113.994 160.043 113.985 160.019 113.98C159.996 113.976 159.972 113.976 159.949 113.981C159.926 113.987 159.904 113.997 159.885 114.011C159.866 114.025 159.849 114.043 159.837 114.064C159.823 114.085 159.814 114.107 159.809 114.131C159.804 114.156 159.804 114.18 159.808 114.205C159.813 114.229 159.822 114.252 159.834 114.272C159.847 114.293 159.864 114.311 159.883 114.325C160.111 114.464 160.309 114.651 160.466 114.873C160.623 115.096 160.736 115.349 160.798 115.618C160.87 116.157 160.754 116.706 160.472 117.163C160.455 117.192 160.444 117.225 160.443 117.259C160.441 117.293 160.448 117.328 160.463 117.358C160.478 117.389 160.5 117.414 160.528 117.433C160.555 117.452 160.587 117.462 160.62 117.464Z" fill="#E0E0E0"/>
<path d="M156.611 107.355L153.774 110.608C153.686 110.701 153.636 110.826 153.636 110.957C153.636 111.089 153.686 111.214 153.774 111.307L157.588 114.959C157.645 115.013 157.714 115.051 157.788 115.071C157.862 115.091 157.94 115.091 158.015 115.073L160.488 114.446C160.579 114.423 160.661 114.37 160.724 114.296C160.786 114.222 160.825 114.13 160.837 114.032L161.263 111.421C161.273 111.341 161.265 111.259 161.239 111.183C161.213 111.107 161.171 111.038 161.116 110.982L157.301 107.338C157.256 107.29 157.202 107.252 157.142 107.226C157.082 107.201 157.018 107.188 156.953 107.19C156.888 107.191 156.825 107.207 156.766 107.235C156.707 107.263 156.655 107.304 156.611 107.355ZM160.341 113.926C160.287 113.987 160.222 114.037 160.149 114.072C160.077 114.107 159.999 114.127 159.919 114.13C159.84 114.134 159.76 114.121 159.686 114.092C159.611 114.063 159.542 114.019 159.484 113.963C159.425 113.906 159.378 113.838 159.345 113.762C159.311 113.686 159.292 113.604 159.289 113.521C159.286 113.437 159.298 113.354 159.326 113.276C159.353 113.197 159.395 113.125 159.449 113.064C159.505 113.004 159.571 112.957 159.644 112.925C159.717 112.893 159.796 112.876 159.875 112.876C159.955 112.876 160.033 112.893 160.107 112.925C160.18 112.957 160.246 113.004 160.302 113.064C160.363 113.117 160.414 113.183 160.451 113.257C160.488 113.33 160.51 113.411 160.518 113.494C160.525 113.577 160.516 113.661 160.493 113.741C160.469 113.821 160.43 113.894 160.379 113.959L160.341 113.926Z" fill="#263238"/>
<path d="M160.55 116.919C160.148 117.007 159.789 117.24 159.535 117.578C159.281 117.917 159.149 118.338 159.162 118.768C159.175 119.198 159.332 119.61 159.606 119.931C159.88 120.252 160.252 120.461 160.658 120.522L161.535 124.792L161.93 125.06L162.232 124.564V123.686L162.015 123.002L162.101 122.555L161.976 121.945V121.368V120.985L161.883 120.253C162.187 120.055 162.424 119.764 162.563 119.419C162.702 119.074 162.735 118.692 162.659 118.326C162.61 118.087 162.517 117.861 162.384 117.661C162.251 117.46 162.082 117.29 161.886 117.159C161.689 117.028 161.47 116.939 161.241 116.898C161.011 116.857 160.777 116.864 160.55 116.919ZM160.876 118.546C160.725 118.567 160.571 118.529 160.446 118.437C160.322 118.346 160.234 118.208 160.202 118.052C160.17 117.896 160.195 117.732 160.272 117.595C160.35 117.457 160.474 117.355 160.62 117.309C160.777 117.275 160.94 117.307 161.075 117.399C161.21 117.49 161.305 117.633 161.341 117.797C161.362 117.955 161.326 118.115 161.24 118.246C161.154 118.377 161.024 118.47 160.876 118.505V118.546Z" fill="#407BFF"/>
<path d="M160.62 117.464C160.652 117.464 160.683 117.456 160.711 117.438C160.738 117.421 160.76 117.396 160.775 117.366C160.788 117.345 160.798 117.322 160.802 117.297C160.806 117.272 160.806 117.246 160.8 117.221C160.794 117.197 160.783 117.174 160.768 117.154C160.753 117.134 160.734 117.118 160.713 117.106C160.282 116.809 159.964 116.363 159.813 115.845C159.764 115.573 159.768 115.293 159.824 115.022C159.88 114.751 159.987 114.494 160.139 114.268C160.152 114.246 160.16 114.223 160.164 114.198C160.167 114.173 160.166 114.148 160.16 114.124C160.155 114.1 160.144 114.077 160.13 114.057C160.116 114.037 160.098 114.02 160.077 114.007C160.036 113.982 159.988 113.974 159.942 113.985C159.896 113.995 159.856 114.024 159.829 114.064C159.651 114.334 159.528 114.639 159.465 114.961C159.402 115.282 159.402 115.613 159.465 115.935C159.629 116.555 160.008 117.088 160.527 117.431C160.553 117.453 160.586 117.464 160.62 117.464Z" fill="#E0E0E0"/>
<path d="M87.0818 106.541C86.826 107.127 86.6554 107.542 86.4616 108.03C86.2677 108.518 86.1049 108.965 85.9344 109.429C85.5932 110.364 85.2986 111.307 85.0117 112.243C84.4479 114.135 83.9769 116.057 83.6007 118.001C83.2125 119.963 82.9381 121.948 82.7789 123.946C82.6092 125.974 82.5678 128.012 82.6548 130.045V130.395C82.6651 130.617 82.6963 130.838 82.7479 131.054C83.0539 132.266 83.5101 133.431 84.1047 134.519C84.5954 135.414 85.1338 136.281 85.7173 137.113C86.791 138.634 87.9591 140.08 89.2139 141.44C90.4389 142.757 91.6949 144.002 92.9897 145.189C94.2844 146.376 95.6024 147.491 97.0445 148.564C97.5319 148.92 98.1224 149.085 98.7138 149.032C99.3053 148.979 99.8604 148.71 100.283 148.273C100.705 147.835 100.969 147.257 101.027 146.637C101.086 146.017 100.936 145.396 100.603 144.88V144.823L97.8508 140.643C96.9437 139.244 96.0444 137.861 95.207 136.47C94.3697 135.08 93.5711 133.689 92.8811 132.363C92.5649 131.741 92.2828 131.1 92.036 130.444C91.8571 129.994 91.7372 129.521 91.6794 129.037L91.7802 130.045C91.912 128.419 92.0748 126.833 92.3539 125.206C92.633 123.58 92.9587 121.953 93.3618 120.327C93.765 118.7 94.2147 117.073 94.7186 115.496C94.9667 114.682 95.2381 113.869 95.4939 113.121L95.9048 111.958L96.2847 110.909L96.3855 110.632C96.8186 109.356 96.7696 107.954 96.2487 106.715C95.7277 105.475 94.7743 104.492 93.584 103.966C92.3937 103.441 91.0569 103.413 89.8477 103.889C88.6386 104.365 87.649 105.308 87.0818 106.525V106.541Z" fill="#FFC3BD"/>
<path d="M95.2692 98.872C90.6174 99.6202 88.7489 101.109 84.9499 110.917C86.6711 114.577 94.7497 118.074 94.7497 118.074C94.7497 118.074 101.2 107.501 95.2692 98.872Z" fill="#263238"/>
</svg>
