<svg width="293" height="222" viewBox="0 0 293 222" fill="none" xmlns="http://www.w3.org/2000/svg">
<path d="M146.5 221.256C209.25 221.256 260.119 218.286 260.119 214.623C260.119 210.959 209.25 207.989 146.5 207.989C83.7496 207.989 32.8804 210.959 32.8804 214.623C32.8804 218.286 83.7496 221.256 146.5 221.256Z" fill="#F5F5F5"/>
<path d="M235.08 33.8298L219.463 18.2129H207.298L220.799 31.7143H217.084V49.0306H231.365V33.8298H235.08Z" fill="#407BFF"/>
<path opacity="0.4" d="M235.08 33.8298L219.463 18.2129H207.298L220.799 31.7143H217.084V49.0306H231.365V33.8298H235.08Z" fill="white"/>
<path d="M222.914 33.8298L207.298 18.2129L191.681 33.8298H197.511V49.0306H217.084V33.8298H222.914Z" fill="#407BFF"/>
<path opacity="0.7" d="M222.914 33.8298L207.298 18.2129L191.681 33.8298H197.511V49.0306H217.084V33.8298H222.914Z" fill="white"/>
<path d="M245.136 96.1685L229.519 80.5457H217.353L230.855 94.0471H227.139V111.363H241.42V96.1685H245.136Z" fill="#407BFF"/>
<path opacity="0.4" d="M245.136 96.1685L229.519 80.5457H217.353L230.855 94.0471H227.139V111.363H241.42V96.1685H245.136Z" fill="white"/>
<path d="M232.97 96.1685L217.353 80.5457L201.737 96.1685H207.561V111.363H227.14V96.1685H232.97Z" fill="#407BFF"/>
<path opacity="0.7" d="M232.97 96.1685L217.353 80.5457L201.737 96.1685H207.561V111.363H227.14V96.1685H232.97Z" fill="white"/>
<path d="M174.851 112.407L159.228 96.7896H147.069L160.57 110.285H156.855V127.607H171.136V112.407H174.851Z" fill="#407BFF"/>
<path opacity="0.4" d="M174.851 112.407L159.228 96.7896H147.069L160.57 110.285H156.855V127.607H171.136V112.407H174.851Z" fill="white"/>
<path d="M162.685 112.407L147.069 96.7896L131.452 112.407H137.276V127.602H156.855V112.407H162.685Z" fill="#407BFF"/>
<path opacity="0.7" d="M162.685 112.407L147.069 96.7896L131.452 112.407H137.276V127.602H156.855V112.407H162.685Z" fill="white"/>
<path d="M173.919 59.9302H165.516L164.315 58.7348L154.558 40.5688L173.919 59.9302Z" fill="#2F54C6"/>
<path d="M165.487 77.5747H183.19V56.1036H165.487V77.5747Z" fill="#407BFF"/>
<path opacity="0.3" d="M165.487 77.5747H183.19V56.1036H165.487V77.5747Z" fill="black"/>
<path d="M172.718 58.7348H187.802L168.434 39.3675H153.356L172.718 58.7348Z" fill="#407BFF"/>
<path opacity="0.3" d="M172.718 58.7348H187.802L168.434 39.3675H153.356L172.718 58.7348Z" fill="black"/>
<path d="M165.486 53.3026V77.5747H141.22V53.3026L153.356 41.5181L153.479 41.6412L154.558 42.6843L165.486 53.3026Z" fill="#407BFF"/>
<path opacity="0.3" d="M154.558 40.5688V48.972L143.594 59.9302H141.22V53.9061L153.479 41.6412L154.558 40.5688Z" fill="black"/>
<path d="M172.718 58.7348H164.315L153.356 47.7707V39.3675L172.718 58.7348Z" fill="#407BFF"/>
<path d="M133.989 58.7348H142.392L153.356 47.7707V39.3675L133.989 58.7348Z" fill="#407BFF"/>
<path d="M131.264 83.4405C126.265 87.4957 121.108 91.3105 115.922 95.0609C110.736 98.8113 105.48 102.456 100.206 106.072C94.9318 109.687 89.5699 113.168 84.1846 116.62C81.5066 118.378 78.7875 120.042 76.0861 121.753C74.7536 122.672 73.2813 123.368 71.7262 123.816C70.8832 124.043 70.0193 124.185 69.1478 124.238C68.1685 124.319 67.1827 124.266 66.2178 124.08C65.4624 123.926 64.7447 123.625 64.1059 123.193C63.4671 122.762 62.9197 122.208 62.4951 121.565C62.0705 120.921 61.777 120.201 61.6315 119.443C61.486 118.686 61.4912 117.908 61.647 117.153C61.647 117.065 61.688 116.954 61.7115 116.86C61.9744 115.911 62.3689 115.004 62.8835 114.165C63.3164 113.417 63.825 112.716 64.4012 112.072C65.4867 110.872 66.7591 109.855 68.1692 109.06C70.8941 107.384 73.5956 105.679 76.3322 104.038C81.7878 100.704 87.2962 97.4635 92.8339 94.264C98.3716 91.0644 103.968 87.9645 109.611 84.9407C115.254 81.9169 120.944 78.9694 126.781 76.2503C127.723 75.842 128.78 75.7853 129.759 76.0907C130.739 76.396 131.577 77.0431 132.12 77.914C132.663 78.785 132.875 79.822 132.718 80.8363C132.561 81.8506 132.045 82.7747 131.264 83.4405Z" fill="#407BFF"/>
<path d="M131.264 83.4405C126.265 87.4957 121.108 91.3105 115.922 95.0609C110.736 98.8113 105.48 102.456 100.206 106.072C94.9318 109.687 89.5699 113.168 84.1846 116.62C81.5066 118.378 78.7875 120.042 76.0861 121.753C74.7536 122.672 73.2813 123.368 71.7262 123.816C70.8832 124.043 70.0193 124.185 69.1478 124.238C68.1685 124.319 67.1827 124.266 66.2178 124.08C65.4624 123.926 64.7447 123.625 64.1059 123.193C63.4671 122.762 62.9197 122.208 62.4951 121.565C62.0705 120.921 61.777 120.201 61.6315 119.443C61.486 118.686 61.4912 117.908 61.647 117.153C61.647 117.065 61.688 116.954 61.7115 116.86C61.9744 115.911 62.3689 115.004 62.8835 114.165C63.3164 113.417 63.825 112.716 64.4012 112.072C65.4867 110.872 66.7591 109.855 68.1692 109.06C70.8941 107.384 73.5956 105.679 76.3322 104.038C81.7878 100.704 87.2962 97.4635 92.8339 94.264C98.3716 91.0644 103.968 87.9645 109.611 84.9407C115.254 81.9169 120.944 78.9694 126.781 76.2503C127.723 75.842 128.78 75.7853 129.759 76.0907C130.739 76.396 131.577 77.0431 132.12 77.914C132.663 78.785 132.875 79.822 132.718 80.8363C132.561 81.8506 132.045 82.7747 131.264 83.4405Z" fill="#407BFF"/>
<path opacity="0.5" d="M131.264 83.4405C126.265 87.4957 121.108 91.3105 115.922 95.0609C110.736 98.8113 105.48 102.456 100.206 106.072C94.9318 109.687 89.5699 113.168 84.1846 116.62C81.5066 118.378 78.7875 120.042 76.0861 121.753C74.7536 122.672 73.2813 123.368 71.7262 123.816C70.8832 124.043 70.0193 124.185 69.1478 124.238C68.1685 124.319 67.1827 124.266 66.2178 124.08C65.4624 123.926 64.7447 123.625 64.1059 123.193C63.4671 122.762 62.9197 122.208 62.4951 121.565C62.0705 120.921 61.777 120.201 61.6315 119.443C61.486 118.686 61.4912 117.908 61.647 117.153C61.647 117.065 61.688 116.954 61.7115 116.86C61.9744 115.911 62.3689 115.004 62.8835 114.165C63.3164 113.417 63.825 112.716 64.4012 112.072C65.4867 110.872 66.7591 109.855 68.1692 109.06C70.8941 107.384 73.5956 105.679 76.3322 104.038C81.7878 100.704 87.2962 97.4635 92.8339 94.264C98.3716 91.0644 103.968 87.9645 109.611 84.9407C115.254 81.9169 120.944 78.9694 126.781 76.2503C127.723 75.842 128.78 75.7853 129.759 76.0907C130.739 76.396 131.577 77.0431 132.12 77.914C132.663 78.785 132.875 79.822 132.718 80.8363C132.561 81.8506 132.045 82.7747 131.264 83.4405Z" fill="white"/>
<path d="M109.64 209.577L114.422 208.469L112.184 197.318L107.402 198.425L109.64 209.577Z" fill="#EBB376"/>
<path d="M77.3988 76.3206C76.7366 78.6646 76.0978 81.1317 75.4884 83.546C74.879 85.9603 74.3164 88.4098 73.8476 90.8476C73.5897 92.0606 73.3671 93.3029 73.1737 94.4456C72.9803 95.5883 72.869 96.7896 72.7987 97.9909C72.7371 99.1856 72.7371 100.383 72.7987 101.577C72.7987 102.163 72.8748 102.749 72.9334 103.37C72.992 103.992 73.0975 104.583 73.1795 105.093L70.8355 105.978C70.528 105.348 70.2637 104.698 70.0444 104.033C69.8152 103.393 69.6196 102.741 69.4584 102.081C69.1378 100.764 68.9184 99.4238 68.8021 98.073C68.6936 96.7084 68.6741 95.3381 68.7435 93.971C68.8373 92.588 69.0014 91.3164 69.183 90.0272C69.5522 87.4546 70.0269 84.9055 70.5894 82.4092C71.152 79.9128 71.7614 77.3989 72.5525 74.8732L77.3988 76.3206Z" fill="#EBB376"/>
<path d="M70.5015 77.1293L75.4297 81.0555L78.389 83.3995C78.389 83.3995 78.6996 82.5733 79.0746 81.3895C79.7896 79.1041 80.7213 75.4827 80.0767 73.8184C79.0629 71.1814 77.1467 68.8023 74.7207 69.3297C72.6638 69.7926 70.5015 77.1293 70.5015 77.1293Z" fill="#263238"/>
<path d="M77.3108 209.612H82.2157L81.8347 198.244H76.9241L77.3108 209.612Z" fill="#EBB376"/>
<path d="M112.184 197.324L113.385 203.295L108.556 204.174L107.396 198.431L112.184 197.324Z" fill="#DA9D62"/>
<path d="M76.9241 198.244H81.8347L82.0281 204.104H77.1175L76.9241 198.244Z" fill="#DA9D62"/>
<path d="M92.9219 99.1102C92.9219 99.1102 90.0739 132.799 87.1205 151.786C84.7355 167.121 82.8485 202.973 82.8485 202.973H76.1799C76.1799 202.973 72.992 168.352 74.205 153.163C77.2698 114.786 71.861 107.988 78.2777 99.0926L92.9219 99.1102Z" fill="#407BFF"/>
<path opacity="0.6" d="M92.9219 99.1102C92.9219 99.1102 90.0739 132.799 87.1205 151.786C84.7355 167.121 82.8485 202.973 82.8485 202.973H76.1799C76.1799 202.973 72.992 168.352 74.205 153.163C77.2698 114.786 71.861 107.988 78.2777 99.0926L92.9219 99.1102Z" fill="black"/>
<path d="M71.1578 105.597L68.2629 107.566L68.6731 109.248C68.6731 109.248 74.7031 106.119 73.0916 104.865L71.1578 105.597Z" fill="#EBB376"/>
<path d="M84.2843 209.899C83.8475 209.888 83.4132 209.829 82.9892 209.724C82.9677 209.717 82.9482 209.705 82.9328 209.688C82.9174 209.672 82.9065 209.652 82.9014 209.63C82.8978 209.607 82.9009 209.584 82.9102 209.563C82.9196 209.542 82.9348 209.525 82.9541 209.513C83.124 209.401 84.6066 208.44 85.1809 208.698C85.246 208.726 85.3022 208.772 85.3434 208.83C85.3847 208.888 85.4095 208.955 85.4153 209.026C85.4382 209.137 85.4324 209.251 85.3986 209.359C85.3647 209.467 85.3039 209.564 85.2219 209.641C84.9504 209.837 84.6177 209.929 84.2843 209.899ZM83.3174 209.554C84.173 209.729 84.8176 209.694 85.0754 209.472C85.1292 209.418 85.1687 209.352 85.1902 209.279C85.2117 209.207 85.2146 209.13 85.1985 209.055C85.1963 209.024 85.186 208.995 85.1685 208.969C85.151 208.943 85.1269 208.922 85.0989 208.909C84.7883 208.774 83.9268 209.208 83.3174 209.554Z" fill="#407BFF"/>
<path d="M83.0186 209.724C82.9995 209.73 82.979 209.73 82.96 209.724C82.9428 209.713 82.9285 209.698 82.9182 209.681C82.908 209.664 82.9022 209.644 82.9014 209.624C82.9014 209.559 82.9014 208.147 83.4405 207.673C83.5055 207.611 83.5837 207.566 83.669 207.539C83.7543 207.513 83.8445 207.506 83.9327 207.52C84.0251 207.521 84.1145 207.553 84.186 207.612C84.2574 207.671 84.3066 207.752 84.3253 207.842C84.4367 208.428 83.5401 209.46 83.0772 209.724C83.058 209.729 83.0377 209.729 83.0186 209.724ZM83.8507 207.737C83.7558 207.739 83.6647 207.775 83.5928 207.837C83.2854 208.293 83.1277 208.834 83.1416 209.384C83.6046 209.009 84.1671 208.212 84.0968 207.878C84.0968 207.825 84.0558 207.755 83.9034 207.737H83.8507Z" fill="#407BFF"/>
<path d="M114.856 207.731C114.834 207.73 114.813 207.723 114.794 207.711C114.776 207.698 114.762 207.682 114.752 207.662C114.743 207.642 114.738 207.62 114.74 207.599C114.742 207.577 114.749 207.556 114.762 207.538C114.92 207.35 116.286 205.745 116.983 205.745H117.03C117.093 205.749 117.155 205.77 117.207 205.806C117.26 205.843 117.302 205.892 117.329 205.95C117.376 206.04 117.401 206.141 117.401 206.243C117.401 206.345 117.376 206.445 117.329 206.536C117.024 207.18 115.647 207.544 114.85 207.708L114.856 207.731ZM116.977 205.973C116.596 205.973 115.752 206.77 115.172 207.421C116.245 207.169 116.971 206.835 117.141 206.454C117.176 206.394 117.194 206.326 117.194 206.257C117.194 206.188 117.176 206.121 117.141 206.061C117.131 206.037 117.115 206.017 117.094 206.001C117.074 205.986 117.049 205.976 117.024 205.973H116.977Z" fill="#407BFF"/>
<path d="M114.856 207.731C114.836 207.728 114.818 207.719 114.803 207.706C114.788 207.692 114.778 207.674 114.774 207.655C114.774 207.602 114.352 206.336 114.727 205.627C114.778 205.524 114.851 205.431 114.94 205.357C115.028 205.282 115.131 205.227 115.243 205.194C115.553 205.1 115.705 205.194 115.77 205.329C116.069 205.809 115.407 207.227 114.967 207.673C114.956 207.691 114.939 207.707 114.92 207.717C114.9 207.727 114.878 207.732 114.856 207.731ZM115.442 205.387C115.397 205.38 115.352 205.38 115.307 205.387C115.225 205.411 115.149 205.451 115.083 205.505C115.018 205.56 114.964 205.627 114.926 205.704C114.756 206.237 114.756 206.811 114.926 207.344C115.342 206.758 115.747 205.709 115.571 205.422C115.551 205.399 115.525 205.382 115.495 205.376C115.465 205.37 115.434 205.374 115.407 205.387H115.442Z" fill="#407BFF"/>
<path d="M83.4463 57.4749C84.0323 60.4049 85.2043 66.2649 83.1826 68.228C83.1826 68.228 83.9796 71.158 89.3942 71.158C95.3421 71.158 92.2363 68.228 92.2363 68.228C88.9899 67.4545 89.0719 65.046 89.6403 62.7782L83.4463 57.4749Z" fill="#EBB376"/>
<path d="M95.2716 51.2281C95.2235 51.229 95.1764 51.2146 95.1369 51.1871C95.1118 51.1691 95.0905 51.1463 95.0743 51.12C95.0581 51.0937 95.0472 51.0645 95.0423 51.034C95.0374 51.0035 95.0385 50.9723 95.0457 50.9423C95.0529 50.9122 95.066 50.8839 95.0841 50.8589C95.2956 50.5578 95.5751 50.3107 95.8999 50.1376C96.2246 49.9646 96.5856 49.8704 96.9535 49.8627C97.0085 49.8715 97.0587 49.8997 97.0949 49.9421C97.131 49.9845 97.1509 50.0384 97.1509 50.0942C97.1509 50.15 97.131 50.2039 97.0949 50.2463C97.0587 50.2888 97.0085 50.3169 96.9535 50.3257C96.6608 50.3337 96.3743 50.4112 96.1175 50.5519C95.8608 50.6925 95.6411 50.8921 95.4767 51.1344C95.4536 51.1664 95.4225 51.1919 95.3866 51.2083C95.3506 51.2247 95.311 51.2316 95.2716 51.2281Z" fill="#263238"/>
<path d="M96.5728 54.0233C96.8887 54.9413 97.3304 55.811 97.8854 56.6076C97.677 56.7427 97.4418 56.8311 97.1959 56.8665C96.9501 56.9019 96.6995 56.8835 96.4614 56.8127L96.5728 54.0233Z" fill="#DE5753"/>
<path d="M96.2444 53.3318C96.2444 53.7303 96.426 54.0585 96.6839 54.0643C96.9417 54.0702 97.1644 53.7655 97.182 53.367C97.1996 52.9685 97.0003 52.6462 96.7425 52.6345C96.4846 52.6228 96.262 52.9392 96.2444 53.3318Z" fill="#263238"/>
<path d="M96.6252 52.6521L97.5863 52.4177C97.5863 52.4177 97.0706 53.1385 96.6252 52.6521Z" fill="#263238"/>
<path d="M82.6257 209.044H77.1115C77.0161 209.04 76.9228 209.072 76.8501 209.134C76.7774 209.196 76.7305 209.283 76.7189 209.378L76.0919 213.738C76.0785 213.848 76.0889 213.96 76.1224 214.066C76.1559 214.172 76.2117 214.27 76.2861 214.353C76.3604 214.435 76.4517 214.501 76.5536 214.546C76.6556 214.59 76.7659 214.612 76.8771 214.611C78.7992 214.581 79.7251 214.464 82.1511 214.464C83.6454 214.464 85.8194 214.622 87.8822 214.622C89.9449 214.622 90.0504 212.583 89.1948 212.402C85.3507 211.569 84.7412 210.433 83.4461 209.343C83.2155 209.151 82.9256 209.045 82.6257 209.044Z" fill="#263238"/>
<path d="M114.329 207.21L109.236 209.325C109.148 209.359 109.075 209.425 109.032 209.509C108.989 209.593 108.978 209.69 109.002 209.782L110.092 214.054C110.123 214.161 110.176 214.259 110.248 214.344C110.32 214.428 110.409 214.497 110.509 214.544C110.609 214.592 110.718 214.618 110.829 214.62C110.94 214.623 111.05 214.601 111.152 214.558C112.91 213.79 113.731 213.333 115.969 212.402C117.346 211.816 120.259 210.79 122.163 209.999C124.068 209.208 123.382 207.286 122.521 207.444C118.653 208.159 116.813 207.684 115.202 207.174C114.916 207.083 114.606 207.096 114.329 207.21Z" fill="#263238"/>
<path d="M103.241 74.3048C104.197 76.555 105.228 78.858 106.271 81.0965C106.798 82.2217 107.347 83.3272 107.918 84.4133C108.504 85.5032 109.09 86.5698 109.676 87.5894C109.986 88.0934 110.297 88.5973 110.619 89.0603L111.1 89.7283C111.198 89.8677 111.31 89.9973 111.434 90.1151C112.073 90.6703 112.87 91.0106 113.713 91.0878C115.712 91.375 118.22 90.9706 120.464 90.367L121.507 92.6231C120.914 92.9794 120.3 93.2984 119.667 93.5783C119.045 93.8681 118.405 94.1186 117.751 94.3284C116.373 94.7975 114.929 95.0448 113.473 95.0609C112.661 95.0682 111.853 94.9616 111.07 94.7445C110.202 94.5055 109.386 94.1082 108.662 93.5725C108.291 93.2907 107.948 92.9748 107.636 92.629C107.373 92.3301 107.179 92.0782 106.945 91.7969C106.505 91.246 106.113 90.6894 105.72 90.1326C104.26 87.9352 102.945 85.645 101.782 83.2765C100.61 80.9325 99.5555 78.5885 98.5828 76.1624L103.241 74.3048Z" fill="#EBB376"/>
<path d="M119.96 92.8986L125.316 92.0547L123.892 89.0193C123.892 89.0193 119.743 89.74 118.946 91.6152L119.96 92.8986Z" fill="#EBB376"/>
<path d="M125.31 89.6873L124.724 88.3922L123.892 89.0193L125.31 92.0547V89.6873Z" fill="#EBB376"/>
<path d="M83.0008 51.4508C83.1063 56.3205 83.0477 58.3832 85.4034 60.9733C88.9194 64.8702 94.9084 63.6748 96.2562 58.8696C97.4692 54.5449 97.0883 47.3078 92.412 45.1865C91.3824 44.7144 90.2492 44.5133 89.12 44.6023C87.9908 44.6914 86.9031 45.0675 85.9602 45.6952C85.0173 46.3228 84.2504 47.181 83.7325 48.1884C83.2145 49.1957 82.9627 50.3187 83.0008 51.4508Z" fill="#EBB376"/>
<path d="M79.0747 42.6549C84.0791 39.0276 89.6695 41.0845 92.7285 43.5925C95.928 46.2178 95.4182 51.2633 93.461 53.3494C93.664 53.658 93.7984 54.0065 93.855 54.3715C93.9116 54.7365 93.8891 55.1093 93.7891 55.4649C94.0361 57.0261 93.6928 58.6233 92.8261 59.945C91.9593 61.2668 90.6314 62.2183 89.1011 62.6141L88.8257 62.6844C82.5731 64.1729 75.3477 59.9419 74.2577 53.6131C73.5956 49.7514 74.6504 45.8545 79.0747 42.6549Z" fill="#263238"/>
<path d="M92.3417 53.7069C92.4218 54.625 92.8148 55.4877 93.4551 56.1505C94.3224 57.0471 95.2131 56.5314 95.3713 55.4708C95.5061 54.5156 95.219 52.8982 94.1642 52.3884C93.1094 51.8786 92.2655 52.6228 92.3417 53.7069Z" fill="#EBB376"/>
<path opacity="0.3" d="M86.1419 114.862C85.5852 124.929 88.0112 132.53 89.1188 136.977C89.904 130.403 90.6248 123.541 91.2284 117.487C89.1598 110.631 86.5462 107.285 86.1419 114.862Z" fill="black"/>
<path d="M83.7685 203.102H75.2422L74.791 200.113L83.8154 199.808L83.7685 203.102Z" fill="#407BFF"/>
<path opacity="0.3" d="M75.4297 81.0555L78.389 83.3995C78.389 83.3995 78.6996 82.5733 79.0746 81.3895L77.3166 72.6874L75.4297 81.0555Z" fill="black"/>
<path d="M81.864 43.4695C83.3935 41.7759 88.5913 39.1917 93.0508 41.2192C94.3228 41.7986 95.4007 42.7326 96.1553 43.9092C96.9099 45.0858 97.3091 46.455 97.3051 47.8528L93.2852 50.5484L81.864 43.4695Z" fill="#263238"/>
<path d="M77.762 47.9172C79.9712 46.1065 82.45 39.5433 77.762 41.8287C73.074 44.1141 71.65 52.9275 77.762 47.9172Z" fill="#407BFF"/>
<path d="M78.2601 43.7097C79.2153 40.9204 72.9157 35.3709 68.6672 40.6449C64.4187 45.9189 75.5117 51.7379 78.2601 43.7097Z" fill="#263238"/>
<path d="M88.1167 47.6008C84.4542 46.042 82.6318 40.1351 88.9196 40.3051C95.2073 40.475 95.0257 50.5484 88.1167 47.6008Z" fill="#407BFF"/>
<path d="M86.933 44.5419C84.712 41.7701 87.1674 34.6443 93.5372 36.9239C99.907 39.2034 92.0312 50.8765 86.933 44.5419Z" fill="#263238"/>
<path d="M98.1899 99.1102C98.1899 99.1102 103.722 136.907 105.667 151.78C107.689 167.221 113.596 201.842 113.596 201.842L107.033 202.844C107.033 202.844 96.6605 169.823 93.7715 154.792C90.6188 138.413 84.3955 99.1219 84.3955 99.1219L98.1899 99.1102Z" fill="#407BFF"/>
<path opacity="0.6" d="M98.1899 99.1102C98.1899 99.1102 103.722 136.907 105.667 151.78C107.689 167.221 113.596 201.842 113.596 201.842L107.033 202.844C107.033 202.844 96.6605 169.823 93.7715 154.792C90.6188 138.413 84.3955 99.1219 84.3955 99.1219L98.1899 99.1102Z" fill="black"/>
<path d="M100.534 69.4879C102.972 70.0739 105.978 76.7777 105.978 76.7777L100.171 84.2199C100.171 84.2199 94.17 75.7288 94.9729 73.1387C95.805 70.4372 97.5747 68.7671 100.534 69.4879Z" fill="#263238"/>
<path d="M92.5878 69.1832C93.3906 69.3004 92.6464 67.4662 92.3124 67.2728C91.5447 66.8157 81.7644 65.8957 81.8757 66.9271C81.9349 67.5426 82.199 68.1204 82.6258 68.5679C83.0653 68.8609 85.5558 68.0522 92.5878 69.1832Z" fill="#407BFF"/>
<path opacity="0.6" d="M92.5878 69.1832C93.3906 69.3004 92.6464 67.4662 92.3124 67.2728C91.5447 66.8157 81.7644 65.8957 81.8757 66.9271C81.9349 67.5426 82.199 68.1204 82.6258 68.5679C83.0653 68.8609 85.5558 68.0522 92.5878 69.1832Z" fill="white"/>
<path d="M100.534 69.4879C100.534 69.4879 102.878 70.3083 98.19 99.1102H78.266C78.6 90.9999 78.6117 85.9955 74.75 69.3414C77.5399 68.7656 80.368 68.3935 83.2118 68.228C86.2258 68.0109 89.2515 68.0109 92.2655 68.228C96.1038 68.5679 100.534 69.4879 100.534 69.4879Z" fill="#263238"/>
<path d="M77.9379 97.944L77.0414 99.702C76.971 99.8427 77.1351 99.9833 77.3637 99.9833H98.2721C98.4479 99.9833 98.6003 99.8954 98.612 99.7782L98.7878 98.0202C98.7878 97.8972 98.6472 97.7917 98.4479 97.7917H78.2778C78.2126 97.7827 78.1461 97.7922 78.086 97.8192C78.0259 97.8461 77.9746 97.8894 77.9379 97.944Z" fill="#407BFF"/>
<path opacity="0.6" d="M77.9379 97.944L77.0414 99.702C76.971 99.8427 77.1351 99.9833 77.3637 99.9833H98.2721C98.4479 99.9833 98.6003 99.8954 98.612 99.7782L98.7878 98.0202C98.7878 97.8972 98.6472 97.7917 98.4479 97.7917H78.2778C78.2126 97.7827 78.1461 97.7922 78.086 97.8192C78.0259 97.8461 77.9746 97.8894 77.9379 97.944Z" fill="white"/>
<path d="M80.6686 100.212H80.1236C80.0181 100.212 79.9361 100.153 79.9419 100.089L80.1998 97.7448C80.1998 97.6745 80.2994 97.6217 80.4049 97.6217H80.9499C81.0553 97.6217 81.1374 97.6745 81.1315 97.7448L80.8737 100.089C80.8678 100.142 80.7741 100.212 80.6686 100.212Z" fill="#407BFF"/>
<path d="M93.76 100.212H93.2209C93.1095 100.212 93.0275 100.153 93.0392 100.089L93.2912 97.7448C93.2912 97.6745 93.3908 97.6217 93.5021 97.6217H94.0413C94.1467 97.6217 94.2288 97.6745 94.2229 97.7448L93.9709 100.089C93.9709 100.142 93.8772 100.212 93.76 100.212Z" fill="#407BFF"/>
<path opacity="0.6" d="M80.6686 100.212H80.1236C80.0181 100.212 79.9361 100.153 79.9419 100.089L80.1998 97.7448C80.1998 97.6745 80.2994 97.6217 80.4049 97.6217H80.9499C81.0553 97.6217 81.1374 97.6745 81.1315 97.7448L80.8737 100.089C80.8678 100.142 80.7741 100.212 80.6686 100.212Z" fill="black"/>
<path opacity="0.6" d="M93.76 100.212H93.2209C93.1095 100.212 93.0275 100.153 93.0392 100.089L93.2912 97.7448C93.2912 97.6745 93.3908 97.6217 93.5021 97.6217H94.0413C94.1467 97.6217 94.2288 97.6745 94.2229 97.7448L93.9709 100.089C93.9709 100.142 93.8772 100.212 93.76 100.212Z" fill="black"/>
<path d="M114.563 201.842L106.16 203.272L105.204 200.101L114.199 198.56L114.563 201.842Z" fill="#407BFF"/>
<path d="M198.308 38.2482C193.839 31.0909 187.347 25.4197 179.654 21.9516C171.961 18.4836 163.413 17.3746 155.09 18.7648C146.767 20.1549 139.043 23.9818 132.895 29.7616C126.746 35.5415 122.45 43.0145 120.549 51.236C118.648 59.4574 119.227 68.0579 122.214 75.9501C125.201 83.8422 130.461 90.6715 137.329 95.5743C144.196 100.477 152.364 103.233 160.798 103.495C169.233 103.756 177.555 101.51 184.713 97.0416C189.466 94.0742 193.589 90.1994 196.845 85.6387C200.101 81.0779 202.426 75.9205 203.689 70.4609C204.951 65.0013 205.126 59.3465 204.203 53.8194C203.279 48.2923 201.276 43.0012 198.308 38.2482ZM133.561 78.6822C130.035 73.034 128.264 66.4672 128.47 59.8121C128.676 53.1569 130.851 46.7124 134.72 41.2934C138.589 35.8745 143.978 31.7244 150.205 29.3681C156.433 27.0117 163.219 26.5549 169.706 28.0554C176.193 29.5559 182.09 32.9463 186.65 37.7978C191.21 42.6494 194.229 48.7443 195.326 55.3117C196.422 61.8792 195.546 68.6242 192.809 74.694C190.072 80.7637 185.597 85.8856 179.949 89.4119C176.198 91.7532 172.023 93.3327 167.662 94.0602C163.301 94.7878 158.839 94.6492 154.531 93.6523C150.224 92.6554 146.155 90.8197 142.557 88.2501C138.959 85.6806 135.902 82.4274 133.561 78.6764V78.6822Z" fill="#407BFF"/>
<path d="M198.308 38.2482C193.839 31.0909 187.347 25.4197 179.654 21.9516C171.961 18.4836 163.413 17.3746 155.09 18.7648C146.767 20.1549 139.043 23.9818 132.895 29.7616C126.746 35.5415 122.45 43.0145 120.549 51.236C118.648 59.4574 119.227 68.0579 122.214 75.9501C125.201 83.8422 130.461 90.6715 137.329 95.5743C144.196 100.477 152.364 103.233 160.798 103.495C169.233 103.756 177.555 101.51 184.713 97.0416C189.466 94.0742 193.589 90.1994 196.845 85.6387C200.101 81.0779 202.426 75.9205 203.689 70.4609C204.951 65.0013 205.126 59.3465 204.203 53.8194C203.279 48.2923 201.276 43.0012 198.308 38.2482ZM133.561 78.6822C130.035 73.034 128.264 66.4672 128.47 59.8121C128.676 53.1569 130.851 46.7124 134.72 41.2934C138.589 35.8745 143.978 31.7244 150.205 29.3681C156.433 27.0117 163.219 26.5549 169.706 28.0554C176.193 29.5559 182.09 32.9463 186.65 37.7978C191.21 42.6494 194.229 48.7443 195.326 55.3117C196.422 61.8792 195.546 68.6242 192.809 74.694C190.072 80.7637 185.597 85.8856 179.949 89.4119C176.198 91.7532 172.023 93.3327 167.662 94.0602C163.301 94.7878 158.839 94.6492 154.531 93.6523C150.224 92.6554 146.155 90.8197 142.557 88.2501C138.959 85.6806 135.902 82.4274 133.561 78.6764V78.6822Z" fill="#407BFF"/>
<path opacity="0.5" d="M198.308 38.2482C193.839 31.0909 187.347 25.4197 179.654 21.9516C171.961 18.4836 163.413 17.3746 155.09 18.7648C146.767 20.1549 139.043 23.9818 132.895 29.7616C126.746 35.5415 122.45 43.0145 120.549 51.236C118.648 59.4574 119.227 68.0579 122.214 75.9501C125.201 83.8422 130.461 90.6715 137.329 95.5743C144.196 100.477 152.364 103.233 160.798 103.495C169.233 103.756 177.555 101.51 184.713 97.0416C189.466 94.0742 193.589 90.1994 196.845 85.6387C200.101 81.0779 202.426 75.9205 203.689 70.4609C204.951 65.0013 205.126 59.3465 204.203 53.8194C203.279 48.2923 201.276 43.0012 198.308 38.2482ZM133.561 78.6822C130.035 73.034 128.264 66.4672 128.47 59.8121C128.676 53.1569 130.851 46.7124 134.72 41.2934C138.589 35.8745 143.978 31.7244 150.205 29.3681C156.433 27.0117 163.219 26.5549 169.706 28.0554C176.193 29.5559 182.09 32.9463 186.65 37.7978C191.21 42.6494 194.229 48.7443 195.326 55.3117C196.422 61.8792 195.546 68.6242 192.809 74.694C190.072 80.7637 185.597 85.8856 179.949 89.4119C176.198 91.7532 172.023 93.3327 167.662 94.0602C163.301 94.7878 158.839 94.6492 154.531 93.6523C150.224 92.6554 146.155 90.8197 142.557 88.2501C138.959 85.6806 135.902 82.4274 133.561 78.6764V78.6822Z" fill="white"/>
<path opacity="0.2" d="M193.497 41.2544C197.37 47.4611 199.317 54.6769 199.089 61.9895C198.862 69.3021 196.472 76.3832 192.221 82.3374C187.969 88.2916 182.048 92.8515 175.205 95.4407C168.362 98.0298 160.906 98.5319 153.778 96.8835C146.65 95.235 140.17 91.51 135.159 86.1795C130.148 80.849 126.83 74.1523 125.625 66.9361C124.419 59.72 125.38 52.3084 128.387 45.6385C131.393 38.9686 136.31 33.3399 142.515 29.4641C146.636 26.8898 151.225 25.1527 156.018 24.352C160.81 23.5514 165.714 23.7028 170.449 24.7977C175.183 25.8926 179.655 27.9095 183.61 30.7332C187.565 33.5569 190.924 37.132 193.497 41.2544Z" fill="#FAFAFA"/>
<path opacity="0.1" d="M198.753 55.6114L141.325 91.4629C136.642 88.2852 132.751 84.0751 129.951 79.1569L192.653 40.0062C195.853 44.6732 197.94 50.0117 198.753 55.6114Z" fill="#E6E6E6"/>
</svg>
